<svg xmlns="http://www.w3.org/2000/svg" xmlns:xlink="http://www.w3.org/1999/xlink" width="24" height="24" preserveAspectRatio="xMidYMid meet" viewBox="0 0 24 24" style="-ms-transform: rotate(360deg); -webkit-transform: rotate(360deg); transform: rotate(360deg);"><path d="M2.2 9.76h2.24v2.18H2.2V9.76m2.75 0H7.2v2.18H4.95V9.76m0-2.8H7.2v2.18H4.95V6.96m2.76 2.8h2.24v2.18H7.71V9.76m0-2.8h2.24v2.18H7.71V6.96m2.75 2.8h2.25v2.18h-2.25V9.76m0-2.8h2.25v2.18h-2.25V6.96m2.76 2.8h2.24v2.18h-2.24V9.76m-2.76-5.6h2.25v2.18h-2.25V4.16M5.33 15.09c.35 0 .63.27.63.61c0 .33-.28.61-.63.61c-.33 0-.62-.28-.62-.61c0-.34.29-.61.62-.61m17.36-4.2l.31.17l-.16.31c-.64 1.21-1.97 1.58-3.27 1.52c-1.95 4.71-6.2 6.95-11.34 6.95c-2.66 0-5.1-.97-6.49-3.26l-.02-.04l-.22-.4a6.33 6.33 0 0 1-.5-3.22l.03-.33H15.8c.53 0 1.07-.09 1.56-.25l.76-.34c-.31-.4-.48-.91-.52-1.41c-.07-.68.07-1.59.55-2.09l.24-.28l.28.22c.71.56 1.3 1.33 1.41 2.21c.85-.24 1.86-.19 2.61.24M5.34 16.85c.66 0 1.16-.52 1.16-1.15c0-.64-.5-1.16-1.17-1.16c-.65 0-1.18.52-1.18 1.16c0 .64.53 1.15 1.19 1.15z" fill="#626262"/><rect x="0" y="0" width="24" height="24" fill="rgba(0, 0, 0, 0)" /></svg>