<svg xmlns="http://www.w3.org/2000/svg" xmlns:xlink="http://www.w3.org/1999/xlink" width="256" height="236" preserveAspectRatio="xMidYMid meet" viewBox="0 0 256 236" style="-ms-transform: rotate(360deg); -webkit-transform: rotate(360deg); transform: rotate(360deg);"><path d="M128.075 236.075l47.104-144.97H80.97l47.104 144.97z" fill="#E24329"/><path d="M128.075 236.074L80.97 91.104H14.956l113.119 144.97z" fill="#FC6D26"/><path d="M14.956 91.104L.642 135.16a9.752 9.752 0 0 0 3.542 10.903l123.891 90.012l-113.12-144.97z" fill="#FCA326"/><path d="M14.956 91.105H80.97L52.601 3.79c-1.46-4.493-7.816-4.492-9.275 0l-28.37 87.315z" fill="#E24329"/><path d="M128.075 236.074l47.104-144.97h66.015l-113.12 144.97z" fill="#FC6D26"/><path d="M241.194 91.104l14.314 44.056a9.752 9.752 0 0 1-3.543 10.903l-123.89 90.012l113.119-144.97z" fill="#FCA326"/><path d="M241.194 91.105h-66.015l28.37-87.315c1.46-4.493 7.816-4.492 9.275 0l28.37 87.315z" fill="#E24329"/><rect x="0" y="0" width="256" height="236" fill="rgba(0, 0, 0, 0)" /></svg>