<svg xmlns="http://www.w3.org/2000/svg" xmlns:xlink="http://www.w3.org/1999/xlink" width="24" height="24" preserveAspectRatio="xMidYMid meet" viewBox="0 0 24 24" style="-ms-transform: rotate(360deg); -webkit-transform: rotate(360deg); transform: rotate(360deg);"><path d="M12 20a8 8 0 1 0 0-16a8 8 0 0 0 0 16zm0 2C6.477 22 2 17.523 2 12S6.477 2 12 2s10 4.477 10 10s-4.477 10-10 10z" fill="#626262"/><path d="M12 16.616l-1.841-5.666h3.682L12 16.616zm0 0L7.578 10.95h2.58L12 16.616zM7.578 10.95L12 16.616l-4.843-3.518a.381.381 0 0 1-.138-.427l.56-1.722zm0 0l1.11-3.413a.19.19 0 0 1 .362 0l1.109 3.413h-2.58zM12 16.616l1.841-5.667h2.58L12 16.616zm4.422-5.667l.56 1.722a.381.381 0 0 1-.14.427L12 16.616l4.422-5.667zm0 0h-2.58l1.108-3.413a.19.19 0 0 1 .363 0l1.109 3.413z" fill="#626262"/><rect x="0" y="0" width="24" height="24" fill="rgba(0, 0, 0, 0)" /></svg>