<svg height="512" viewBox="0 0 64 64" width="512" xmlns="http://www.w3.org/2000/svg"><g id="Network-2" data-name="Network"><path d="m53 47h-2a2.006 2.006 0 0 0 -2 2v10a2.006 2.006 0 0 0 2 2h4a2.006 2.006 0 0 0 2-2v-10a2.006 2.006 0 0 0 -2-2z" fill="#9bc9ff"/><path d="m9 15h46v-12h-46zm22-8a2 2 0 1 1 -2 2 2.006 2.006 0 0 1 2-2zm-8 0a2 2 0 1 1 -2 2 2.006 2.006 0 0 1 2-2zm-8 0a2 2 0 1 1 -2 2 2.006 2.006 0 0 1 2-2z" fill="#9bc9ff"/><circle cx="32" cy="40" fill="#9bc9ff" r="3"/><circle cx="31" cy="25" fill="#9bc9ff" r="2"/><circle cx="23" cy="25" fill="#9bc9ff" r="2"/><circle cx="15" cy="25" fill="#9bc9ff" r="2"/><path d="m11 47h-2a2.006 2.006 0 0 0 -2 2v10a2.006 2.006 0 0 0 2 2h4a2.006 2.006 0 0 0 2-2v-10a2.006 2.006 0 0 0 -2-2z" fill="#9bc9ff"/><g fill="#57a4ff"><path d="m15 6a3 3 0 1 0 3 3 3 3 0 0 0 -3-3zm0 4a1 1 0 1 1 1-1 1 1 0 0 1 -1 1z"/><path d="m23 6a3 3 0 1 0 3 3 3 3 0 0 0 -3-3zm0 4a1 1 0 1 1 1-1 1 1 0 0 1 -1 1z"/><path d="m31 6a3 3 0 1 0 3 3 3 3 0 0 0 -3-3zm0 4a1 1 0 1 1 1-1 1 1 0 0 1 -1 1z"/><path d="m39 6h-2a1 1 0 0 0 0 2h2a1 1 0 0 0 0-2z"/><path d="m39 10h-2a1 1 0 0 0 0 2h2a1 1 0 0 0 0-2z"/><path d="m45 6h-2a1 1 0 0 0 0 2h2a1 1 0 0 0 0-2z"/><path d="m45 10h-2a1 1 0 0 0 0 2h2a1 1 0 0 0 0-2z"/><path d="m51 6h-2a1 1 0 0 0 0 2h2a1 1 0 0 0 0-2z"/><path d="m51 10h-2a1 1 0 0 0 0 2h2a1 1 0 0 0 0-2z"/><path d="m15 22a3 3 0 1 0 3 3 3 3 0 0 0 -3-3zm0 4a1 1 0 1 1 1-1 1 1 0 0 1 -1 1z"/><path d="m23 22a3 3 0 1 0 3 3 3 3 0 0 0 -3-3zm0 4a1 1 0 1 1 1-1 1 1 0 0 1 -1 1z"/><path d="m31 22a3 3 0 1 0 3 3 3 3 0 0 0 -3-3zm0 4a1 1 0 1 1 1-1 1 1 0 0 1 -1 1z"/><path d="m39 22h-2a1 1 0 0 0 0 2h2a1 1 0 0 0 0-2z"/><path d="m39 26h-2a1 1 0 0 0 0 2h2a1 1 0 0 0 0-2z"/><path d="m45 22h-2a1 1 0 0 0 0 2h2a1 1 0 0 0 0-2z"/><path d="m45 26h-2a1 1 0 0 0 0 2h2a1 1 0 0 0 0-2z"/><path d="m51 22h-2a1 1 0 0 0 0 2h2a1 1 0 0 0 0-2z"/><path d="m51 26h-2a1 1 0 0 0 0 2h2a1 1 0 0 0 0-2z"/><path d="m10 52h2a1 1 0 0 0 0-2h-2a1 1 0 0 0 0 2z"/><path d="m31 52h2a1 1 0 0 0 0-2h-2a1 1 0 0 0 0 2z"/><path d="m55 46h-1v-6a1 1 0 0 0 -1-1h-17.142a4 4 0 0 0 -2.858-2.858v-4.142h22a1 1 0 0 0 1-1v-12a1 1 0 0 0 -1-1h-4v-2h4a1 1 0 0 0 1-1v-12a1 1 0 0 0 -1-1h-46a1 1 0 0 0 -1 1v12a1 1 0 0 0 1 1h4v2h-4a1 1 0 0 0 -1 1v12a1 1 0 0 0 1 1h22v4.142a4 4 0 0 0 -2.858 2.858h-17.142a1 1 0 0 0 -1 1v6h-1a3 3 0 0 0 -3 3v10a3 3 0 0 0 3 3h4a3 3 0 0 0 3-3v-10a3 3 0 0 0 -3-3h-1v-5h16.142a4 4 0 0 0 2.858 2.858v2.142h-1a3 3 0 0 0 -3 3v10a3 3 0 0 0 3 3h4a3 3 0 0 0 3-3v-10a3 3 0 0 0 -3-3h-1v-2.142a4 4 0 0 0 2.858-2.858h16.142v5h-1a3 3 0 0 0 -3 3v10a3 3 0 0 0 3 3h4a3 3 0 0 0 3-3v-10a3 3 0 0 0 -3-3zm-45-42h44v10h-44zm5 12h34v2h-34zm-5 4h44v10h-44zm4 29v10a1 1 0 0 1 -1 1h-4a1 1 0 0 1 -1-1v-10a1 1 0 0 1 1-1h4a1 1 0 0 1 1 1zm21 0v10a1 1 0 0 1 -1 1h-4a1 1 0 0 1 -1-1v-10a1 1 0 0 1 1-1h4a1 1 0 0 1 1 1zm-3-7a2 2 0 1 1 2-2 2 2 0 0 1 -2 2zm24 17a1 1 0 0 1 -1 1h-4a1 1 0 0 1 -1-1v-10a1 1 0 0 1 1-1h4a1 1 0 0 1 1 1z"/><path d="m54 50h-2a1 1 0 0 0 0 2h2a1 1 0 0 0 0-2z"/></g></g></svg>