<?xml version="1.0" encoding="utf-8"?>
<!-- Generator: Adobe Illustrator 16.0.0, SVG Export Plug-In . SVG Version: 6.00 Build 0)  -->
<!DOCTYPE svg PUBLIC "-//W3C//DTD SVG 1.1//EN" "http://www.w3.org/Graphics/SVG/1.1/DTD/svg11.dtd">
<svg version="1.1"
	 id="Layer_1" xmlns:cc="http://creativecommons.org/ns#" xmlns:dc="http://purl.org/dc/elements/1.1/" xmlns:rdf="http://www.w3.org/1999/02/22-rdf-syntax-ns#"
	 xmlns="http://www.w3.org/2000/svg" xmlns:xlink="http://www.w3.org/1999/xlink" x="0px" y="0px" width="3000px" height="3000px"
	 viewBox="0 0 3000 3000" enable-background="new 0 0 3000 3000" xml:space="preserve">
<filter  height="1.418" width="1.316" style="color-interpolation-filters:sRGB" y="-.2092" x="-.1580" id="filter28927-8-8">
	<feGaussianBlur  stdDeviation="0.24891089"></feGaussianBlur>
</filter>
<filter  height="1.547" width="1.939" style="color-interpolation-filters:sRGB" y="-.2737" x="-.4693" id="filter15211-9-2">
	<feGaussianBlur  stdDeviation="0.85991809"></feGaussianBlur>
</filter>
<filter  style="color-interpolation-filters:sRGB" id="filter15177-1-2">
	<feGaussianBlur  stdDeviation="0.11039302"></feGaussianBlur>
</filter>
<filter  height="1.211" width="1.233" style="color-interpolation-filters:sRGB" y="-.1057" x="-.1164" id="filter15173-0-7">
	<feGaussianBlur  stdDeviation="0.11039302"></feGaussianBlur>
</filter>
<g>
	
		<linearGradient id="path8576_1_" gradientUnits="userSpaceOnUse" x1="-103.1919" y1="2246.2305" x2="-103.1919" y2="2642.418" gradientTransform="matrix(1.6854 0 0 -1.6854 1968.0089 5529.1465)">
		<stop  offset="0" style="stop-color:#353844"/>
		<stop  offset="0.5" style="stop-color:#595B67"/>
		<stop  offset="1" style="stop-color:#6C6F7A"/>
	</linearGradient>
	<path id="path8576" fill="url(#path8576_1_)" d="M764.723,1087.898v677.909h141.93v-247.329l83.691-63.928l243.437,311.257h167.531
		l-313.205-391.205l289.55-286.704l-165.435-0.016l-305.569,307.516v-307.516l-141.93-0.016V1087.898z M1417.631,1087.898
		l250.024,677.909h145.224l248.527-677.909l-146.721-0.016l-139.236,435.371c-4.49,15.121-8.982,30.393-13.474,45.813
		c-4.491,14.972-7.485,28.745-10.479,40.872c-4.492,14.373-7.486,28.296-10.48,41.321c-2.995-13.475-7.485-27.547-10.48-42.22
		c-4.492-12.576-7.485-26.35-11.978-41.471c-4.491-15.121-8.982-29.793-13.474-44.316l-139.235-435.371l-148.218-0.016V1087.898z
		 M2134.767,1087.898v677.909h125.761v-410.818v-44.315c-1.498-17.068-1.498-33.237-2.994-48.657
		c0-17.966-1.497-36.231-1.497-54.796c5.988,25.302,13.475,49.406,19.463,72.163c2.993,9.581,5.988,19.612,8.982,29.793
		c2.995,10.331,5.988,20.211,7.485,29.943c2.995,9.582,5.988,18.564,7.486,26.948c2.994,8.234,5.988,15.42,7.486,21.559
		l122.766,378.181h100.31l122.767-378.181c1.497-6.139,2.994-13.324,5.988-21.559c2.994-8.384,5.988-17.366,7.486-26.948
		c2.994-9.732,5.988-19.612,8.982-29.943c2.994-10.181,5.988-20.212,8.982-29.793c5.988-22.757,11.977-46.861,17.967-72.163
		c0,16.02-1.498,32.488-1.498,49.556c-1.497,14.373-1.497,30.243-1.497,47.609c-1.497,17.367-1.497,34.136-1.497,50.604v410.818
		h125.761v-677.909l-188.642-0.016l-119.771,381.624c-1.497,4.79-2.994,10.181-4.492,16.318c-1.497,6.139-4.491,12.427-5.988,19.164
		s-4.491,13.624-5.988,20.811c-1.497,7.037-2.994,13.924-5.988,20.661c-2.995,15.42-7.486,31.439-11.978,48.059
		c-4.491-16.918-8.983-33.387-13.474-49.107c-2.995-13.475-7.486-27.397-10.48-41.771c-2.994-14.522-7.486-26.649-10.48-36.68
		l-121.269-379.079l-190.139-0.016V1087.898z"/>
	<g transform="translate(1186 -681.1)">
		
			<radialGradient id="path9485_1_" cx="-1149.916" cy="3884.0767" r="44.4153" gradientTransform="matrix(2.8433 0 0 -2.8433 2883.4202 13047.4805)" gradientUnits="userSpaceOnUse">
			<stop  offset="0" style="stop-color:#D3EFB3"/>
			<stop  offset="0.3" style="stop-color:#70C809"/>
			<stop  offset="1" style="stop-color:#366004"/>
		</radialGradient>
		<path id="path9485" fill="url(#path9485_1_)" d="M-332.945,2054.669c0,43.41-35.191,78.601-78.601,78.601
			c-43.41,0-78.601-35.19-78.601-78.601s35.191-78.601,78.601-78.601C-368.136,1976.069-332.945,2011.259-332.945,2054.669z"/>
	</g>
	<g transform="translate(1186 -681.1)">
		
			<radialGradient id="path9495_1_" cx="-1132.5371" cy="3874.4663" r="44.4157" gradientTransform="matrix(2.8438 0 0 -2.8438 2443.4321 12806.8301)" gradientUnits="userSpaceOnUse">
			<stop  offset="0" style="stop-color:#B1E4FC"/>
			<stop  offset="0.3" style="stop-color:#04A7F3"/>
			<stop  offset="1" style="stop-color:#023F5C"/>
		</radialGradient>
		<path id="path9495" fill="url(#path9495_1_)" d="M-724.331,1839.072c0,43.41-35.19,78.602-78.601,78.602l0,0
			c-43.41,0-78.6-35.191-78.6-78.602l0,0c0-43.41,35.19-78.601,78.6-78.601C-759.521,1760.471-724.331,1795.662-724.331,1839.072z"
			/>
	</g>
	<g transform="translate(1186 -681.1)">
		
			<radialGradient id="path9505_1_" cx="-1128.4648" cy="3894.2446" r="44.4163" gradientTransform="matrix(2.8433 0 0 -2.8433 2337.3538 13306.3594)" gradientUnits="userSpaceOnUse">
			<stop  offset="0" style="stop-color:#EEB0D3"/>
			<stop  offset="0.3" style="stop-color:#C6006E"/>
			<stop  offset="1" style="stop-color:#2B0018"/>
		</radialGradient>
		<path id="path9505" fill="url(#path9505_1_)" d="M-818.022,2285.231c0,43.409-35.191,78.6-78.601,78.6
			c-43.41,0-78.601-35.19-78.601-78.6c0-43.41,35.191-78.601,78.601-78.601C-853.213,2206.63-818.022,2241.821-818.022,2285.231z"/>
	</g>
	<g transform="translate(617.3 -146.7)">
		<path id="path9515" fill="#020204" d="M-283.906,1952.048c-12.341,6.092-23.805,13.883-36.366,19.509
			c-12.557,5.63-26.754,9.036-40.108,5.701c-5.827-1.458-11.388-4.169-17.382-4.621c-2.994-0.226-6.086,0.146-8.78,1.474
			c-2.694,1.328-4.951,3.684-5.784,6.568c-0.632,2.193-0.427,4.524-0.429,6.808c0,6.4-1.833,12.997-6.135,17.741
			c-2.283,2.516-5.294,4.472-8.646,5.027c-3.786,0.628-7.698-0.578-10.967-2.59c-3.268-2.012-5.988-4.787-8.623-7.578
			c-3.171-3.36-6.285-6.81-8.772-10.703c-2.488-3.892-4.34-8.273-4.763-12.873c-0.407-4.435,0.531-8.92,2.197-13.049
			c1.665-4.129,4.039-7.937,6.584-11.592c7.723-11.084,17.127-20.975,27.652-29.434c10.805-8.687,22.727-15.855,34.66-22.937
			c13.616-8.081,27.308-16.095,41.561-22.966c21.649-10.453,44.495-18.235,67.477-25.272c15.226-4.657,31.276-9.033,46.876-5.879
			c6.436,1.301,12.616,3.884,18.025,7.599c12.423,8.53,20.391,23.267,20.571,38.328c0.056,4.744-0.629,9.537-2.412,13.936
			c-1.782,4.396-4.701,8.39-8.601,11.092c-3.469,2.403-7.579,3.719-11.708,4.59c-4.129,0.869-8.336,1.328-12.467,2.198
			c-10.667,2.251-20.541,7.185-30.587,11.409c-14.294,6.006-29.179,10.648-43.073,17.516L-283.906,1952.048z"/>
		<g id="path9517" filter="url(#filter15211-9-2)">
			<path fill="#020204" d="M-215.848,1859.975c-0.283-3.438-5.195-3.954-7.385-2.24c-1.85,1.447-3.586,6.396-1.989,8.331
				c2.594,3.138,9.761-1.376,9.374-6.089L-215.848,1859.975z"/>
		</g>
		<path id="path9519" fill="#FFFFFF" stroke="#020204" stroke-width="2" d="M-293.788,1949.053
			c-21.05,8.01-40.977,18.999-58.973,32.549c-8.979,0.261-17.98-4.012-23.445-11.137c-5.474-7.125-7.284-16.918-4.718-25.526
			c2.553-8.566,8.934-15.421,15.526-21.454c12.052-11.031,25.466-20.48,39.21-29.3c19.373-12.435,39.615-23.774,61.353-31.35
			c16.484-5.747,33.731-9.288,51.158-10.501c-7.265,15.436-14.832,30.736-22.696,45.873c-7.049,13.578-14.334,27.038-21.844,40.363
			c-12.106,2.563-24.014,6.066-35.572,10.466L-293.788,1949.053z"/>
		<path id="path9521" fill="#020204" stroke="#020204" stroke-width="2" d="M-293.788,1949.053
			c-21.05,8.01-40.977,18.999-58.973,32.549c-8.979,0.261-17.98-4.012-23.445-11.137c-5.474-7.125-7.284-16.918-4.718-25.526
			c2.553-8.566,8.934-15.421,15.526-21.454c12.052-11.029,25.466-20.48,39.21-29.3c19.373-12.435,39.615-23.774,61.353-31.35
			c16.484-5.747,33.731-9.288,51.158-10.501c-7.265,15.436-14.832,30.736-22.696,45.873c-7.049,13.578-14.334,27.038-21.844,40.363
			c-12.106,2.563-24.014,6.066-35.572,10.466L-293.788,1949.053z"/>
		<g>
			<defs>
				<path id="SVGID_1_" d="M-293.788,1949.053c-21.05,8.01-40.977,18.999-58.973,32.549c-8.979,0.261-17.98-4.012-23.445-11.137
					c-5.474-7.125-7.284-16.918-4.718-25.526c2.553-8.566,8.934-15.421,15.526-21.454c12.052-11.029,25.466-20.48,39.21-29.3
					c19.373-12.435,39.615-23.774,61.353-31.35c16.484-5.747,33.731-9.288,51.158-10.501c-7.265,15.436-14.832,30.736-22.696,45.873
					c-7.049,13.578-14.334,27.038-21.844,40.363c-12.106,2.563-24.014,6.066-35.572,10.466L-293.788,1949.053z"/>
			</defs>
			<clipPath id="SVGID_2_">
				<use xlink:href="#SVGID_1_"  overflow="visible"/>
			</clipPath>
			<path id="path9523" clip-path="url(#SVGID_2_)" fill="#FFFFFF" d="M-299.028,1949.053c-14.361,6.621-28.73,13.238-43.088,19.853
				c-7.795-2.521-14.793-7.456-19.792-13.954c-4.992-6.497-7.958-14.529-8.384-22.711c-0.288-5.512,0.57-11.118,2.823-16.154
				c3.409-7.622,9.813-13.562,16.858-18.041c7.049-4.475,14.817-7.667,22.353-11.262c20.735-9.893,39.959-22.967,61.354-31.35
				c16.289-6.383,33.67-9.952,51.157-10.501c-7.266,15.435-14.832,30.735-22.696,45.872c-7.049,13.579-14.334,27.038-21.844,40.363
				c-12.917,5.962-25.841,11.921-38.761,17.876L-299.028,1949.053z"/>
		</g>
	</g>
	<path id="path9525" fill="#020204" d="M491.642,1584.518c-4.042,0-8.234,0.15-12.277,0.6c-16.468,1.946-32.788,8.684-43.567,21.109
		c-8.983,10.33-13.624,23.655-16.918,36.979c-3.293,13.325-5.539,26.949-10.629,39.675c-8.684,21.26-24.703,38.627-35.482,58.838
		c-11.828,22.309-16.918,47.609-25.901,71.265c-8.084,21.708-19.612,42.07-27.428,63.778c-5.03,14.224-8.399,28.896-9.881,43.867
		h390.308c4.192-25.003,4.341-50.754,1.048-76.056c-4.791-35.632-16.02-70.216-30.991-103.004
		c-7.786-16.918-16.47-33.536-24.254-50.454c-6.289-13.923-12.126-28.146-19.762-41.471c-7.486-13.175-16.918-25.751-29.494-34.585
		c-9.133-6.588-19.613-10.929-30.093-14.672c-12.426-4.342-25.002-8.085-37.878-10.929c-12.126-2.695-24.403-4.941-36.829-4.941
		H491.642z"/>
	<path id="path9537" fill="#020204" d="M407.502,1655.333c-0.197-18.624-0.819-37.249-1.867-55.844
		c-1.007-17.891-2.408-35.796-1.713-53.688c0.708-18.221,3.69-36.665,11.771-53.014c8.086-16.364,21.26-30.213,37.339-38.852
		c15.121-8.14,32.503-11.623,49.661-11.438c23.28,0.25,46.621,7.286,65.47,20.945c11.815,8.561,21.768,19.598,29.599,31.889
		c6.691,10.503,11.889,21.979,15.151,34.001c6.691,24.644,5.104,50.664,6.404,76.16c1.234,24.179,5.104,48.298,3.789,72.462
		c-0.286,5.25-0.854,10.621-3.194,15.331c-2.28,4.588-6.151,8.276-10.598,10.818c-4.446,2.542-9.454,3.99-14.518,4.771
		c-10.125,1.563-20.481,0.531-30.677,1.478c-14.804,1.374-28.925,6.866-43.612,9.137c-17.516,2.703-35.348,0.776-53.058,0.08
		c-7.091-0.279-14.205-0.359-21.245-1.24c-7.042-0.88-14.063-2.59-20.317-5.94c-3.852-2.063-7.393-4.747-10.266-8.038
		c-2.875-3.292-5.072-7.201-6.195-11.425c-1.688-6.347-0.91-13.045-0.755-19.612c0.142-6.008-0.251-12.028-1.172-17.966v-0.001
		L407.502,1655.333z"/>
	<path id="path9541" fill="#FDFDFB" d="M463.047,1637.367h-3.444c-4.491,0.3-9.133,1.198-13.325,2.845
		c-4.191,1.797-8.084,4.342-10.929,7.935c-2.545,3.145-4.042,6.888-5.09,10.779c-1.048,3.894-1.348,7.936-1.497,11.978
		c-0.299,8.085,0.149,16.169-1.947,23.955c-2.246,8.234-7.336,15.421-12.426,22.457c-8.534,12.127-17.367,24.554-21.56,38.776
		c-2.544,8.683-3.443,17.816-2.544,26.799c-9.582,14.224-17.966,29.194-25.003,44.914c-10.48,23.805-17.667,49.257-20.212,75.158
		c-0.598,5.838-0.897,11.827-0.897,17.666h298.382c3.593-39.076,2.246-79.499-14.822-114.683
		c-6.438-13.324-14.971-25.751-25.301-36.38c-2.695-18.564-8.234-36.831-16.02-53.897c-5.689-12.427-12.576-24.104-17.966-36.681
		c-2.096-5.09-4.042-10.33-6.438-15.421c-2.396-5.09-5.39-9.881-9.433-13.773c-4.042-3.894-9.132-6.737-14.672-8.534
		c-5.39-1.797-11.079-2.545-16.769-2.845c-11.378-0.599-22.906,0.899-34.284,0.449
		C478.917,1638.565,470.982,1637.217,463.047,1637.367L463.047,1637.367z"/>
	
		<radialGradient id="path9549_1_" cx="-249.4424" cy="3200.2695" r="12.9423" gradientTransform="matrix(2.1978 -0.0925 -0.0799 -3.3657 1248.365 12333.6309)" gradientUnits="userSpaceOnUse">
		<stop  offset="0" style="stop-color:#FEFEFC"/>
		<stop  offset="0.7573" style="stop-color:#FEFEFC"/>
		<stop  offset="1" style="stop-color:#D4D4D4"/>
	</radialGradient>
	<path id="path9549" fill="url(#path9549_1_)" d="M439.092,1548.886c-4.266,0.232-8.347,2.201-11.468,5.119
		c-3.121,2.917-5.321,6.735-6.674,10.788c-2.706,8.105-2.098,16.889-1.482,25.422c0.557,7.717,1.127,15.585,4.017,22.757
		c1.445,3.588,3.473,6.971,6.18,9.734c2.707,2.764,6.112,4.891,9.864,5.831c3.519,0.883,7.278,0.699,10.738-0.388
		s6.621-3.063,9.214-5.602c3.781-3.7,6.332-8.542,7.792-13.628c1.462-5.086,1.879-10.423,1.803-15.72
		c-0.096-6.623-0.96-13.267-3.032-19.554c-2.073-6.289-5.379-12.224-9.996-16.978c-2.234-2.3-4.784-4.323-7.662-5.743
		c-2.876-1.419-6.092-2.217-9.295-2.042L439.092,1548.886z"/>
	
		<radialGradient id="path9555_1_" cx="-132.3286" cy="3197.0498" r="12.9425" gradientTransform="matrix(2.9275 -0.0925 -0.1063 -3.3657 1259.7435 12333.6309)" gradientUnits="userSpaceOnUse">
		<stop  offset="0" style="stop-color:#FEFEFC"/>
		<stop  offset="0.7573" style="stop-color:#FEFEFC"/>
		<stop  offset="1" style="stop-color:#D4D4D4"/>
	</radialGradient>
	<path id="path9555" fill="url(#path9555_1_)" d="M514.549,1548.886c-6.662,4.575-12.243,10.959-14.972,18.564
		c-3.44,9.585-2.121,20.316,1.198,29.943c3.4,9.861,9.088,19.269,17.681,25.183c4.294,2.959,9.266,4.989,14.445,5.602
		c5.181,0.612,10.563-0.227,15.181-2.636c5.637-2.938,9.936-8.079,12.604-13.847c2.669-5.77,3.806-12.146,4.162-18.491
		c0.455-8.086-0.336-16.304-2.994-23.954c-2.886-8.309-8.121-15.975-15.511-20.765c-3.692-2.392-7.886-4.034-12.242-4.636
		c-4.356-0.603-8.874-0.151-12.974,1.441c-2.337,0.907-4.521,2.174-6.588,3.593L514.549,1548.886z"/>
	<path id="path9561" opacity="0.3" fill="#A2A2A2" enable-background="new    " d="M437.631,1617.935
		c-4.278,3.538-8.386,7.287-12.303,11.223c-2.165,2.177-4.333,4.513-5.306,7.423c-0.863,2.59-0.699,5.397-1.123,8.095
		c-0.145,0.924-0.36,1.843-0.365,2.778c-0.001,0.468,0.05,0.938,0.188,1.385c0.138,0.447,0.363,0.87,0.682,1.212
		c0.531,0.568,1.289,0.876,2.051,1.032c0.763,0.154,1.545,0.173,2.318,0.257c3.488,0.378,6.703,2.068,9.592,4.06
		c2.889,1.992,5.545,4.313,8.505,6.192c6.543,4.154,14.356,6.002,22.101,6.296c7.744,0.296,15.469-0.888,23.067-2.407
		c6.04-1.208,12.059-2.638,17.786-4.896c8.775-3.459,16.682-8.784,24.242-14.426c3.433-2.563,6.818-5.204,9.901-8.18
		c1.046-1.01,2.058-2.059,3.181-2.985c1.122-0.924,2.367-1.729,3.751-2.174c2.11-0.68,4.398-0.484,6.583-0.119
		c1.646,0.276,3.296,0.645,4.963,0.579c0.834-0.034,1.668-0.179,2.444-0.489c0.775-0.311,1.489-0.791,2.02-1.435
		c0.698-0.846,1.054-1.95,1.059-3.046c0.003-1.098-0.333-2.184-0.889-3.127c-1.113-1.891-3.037-3.169-5.043-4.06
		c-2.745-1.221-5.715-1.824-8.638-2.53c-8.971-2.166-17.69-5.368-25.966-9.472c-4.111-2.04-8.107-4.302-12.15-6.467
		c-4.159-2.229-8.396-4.37-12.909-5.738c-10.092-3.059-21.125-2.056-31.093,1.405c-11.066,3.842-21.072,10.689-28.673,19.612v0.001
		L437.631,1617.935z"/>
	
		<radialGradient id="path9563_1_" cx="180.5469" cy="3567.6602" r="13.6723" gradientTransform="matrix(1.8826 -1.3677 -1.2413 -1.7073 4564.5415 7947.5396)" gradientUnits="userSpaceOnUse">
		<stop  offset="0" style="stop-color:#020204"/>
		<stop  offset="0.7345" style="stop-color:#020204"/>
		<stop  offset="1" style="stop-color:#5C5C5C"/>
	</radialGradient>
	<path id="path9563" fill="url(#path9563_1_)" d="M459.154,1605.179c4.234-4.76,7.13-10.565,11.196-15.465
		c2.033-2.452,4.379-4.684,7.143-6.27c2.762-1.583,5.969-2.494,9.142-2.219c3.532,0.306,6.837,2.065,9.423,4.49
		c2.585,2.425,4.503,5.485,6.033,8.684c1.465,3.062,2.629,6.323,4.742,8.983c2.251,2.835,5.412,4.771,8.267,7.001
		c1.427,1.115,2.797,2.322,3.923,3.739c1.129,1.416,2.011,3.055,2.375,4.831c0.369,1.801,0.185,3.7-0.443,5.429
		c-0.628,1.727-1.693,3.286-3.016,4.563c-2.649,2.55-6.262,3.926-9.902,4.441c-7.284,1.03-14.647-1.141-21.994-0.938
		c-7.442,0.205-14.711,2.836-22.157,2.563c-3.721-0.136-7.494-1.045-10.551-3.17c-1.528-1.062-2.86-2.42-3.822-4.014
		c-0.963-1.593-1.55-3.422-1.613-5.283c-0.06-1.773,0.355-3.547,1.063-5.175s1.707-3.119,2.832-4.494
		C454.043,1610.128,456.793,1607.831,459.154,1605.179L459.154,1605.179z"/>
	<path id="path9569" fill="#232323" d="M542.096,1473.429c-6.141,4.333-3.458,9.744-0.817,15.183
		c2.641,5.43-5.807,21.079-5.897,21.753c-0.088,0.675,16.633-7.937,21.185-13.529c5.38-6.606,18.983,8.936,18.235,6.572
		c0.005-4.231-26.575-34.314-32.713-29.973L542.096,1473.429z"/>
	<g transform="matrix(1.6 0 0 1.6 -693.3 524.7)">
		<path id="path9573" fill="#020204" d="M760.819,634.483c-1.565,0.112-3.09,0.646-4.418,1.483c-1.328,0.836-2.46,1.969-3.349,3.262
			c-1.777,2.587-2.559,5.76-2.684,8.895c-0.094,2.354,0.167,4.739,0.947,6.962c0.781,2.224,2.098,4.28,3.912,5.783
			c1.857,1.538,4.216,2.462,6.625,2.577c2.407,0.116,4.849-0.579,6.828-1.956c1.577-1.097,2.847-2.609,3.753-4.302
			c0.905-1.694,1.451-3.568,1.699-5.472c0.44-3.364-0.057-6.876-1.613-9.892c-1.554-3.015-4.193-5.499-7.376-6.671
			C763.765,634.644,762.285,634.379,760.819,634.483L760.819,634.483z"/>
		<g id="path9575" filter="url(#filter28927-8-8)">
			<path fill="#141413" d="M764.562,644.664c-1.297,0.511-3.35,0.19-3.917,1.462c-0.337,0.754,0.139,1.995,0.903,2.307
				c1.545,0.629,3.94-0.511,4.565-2.059c0.271-0.672-0.14-1.738-0.808-2.02C765.059,644.251,764.812,644.565,764.562,644.664
				L764.562,644.664z"/>
		</g>
		
			<linearGradient id="path9577_1_" gradientUnits="userSpaceOnUse" x1="317.1232" y1="1716.2878" x2="323.0746" y2="1709.2705" gradientTransform="matrix(2.6966 0 0 -2.6966 -93.1573 5265.6792)">
			<stop  offset="0" style="stop-color:#949494;stop-opacity:0.3922"/>
			<stop  offset="0.5" style="stop-color:#949494"/>
			<stop  offset="1" style="stop-color:#949494;stop-opacity:0.3922"/>
		</linearGradient>
		<path id="path9577" fill="url(#path9577_1_)" d="M770.401,648.107c1.738-1.738-1.237-6.348-3.556-8.235
			c-1.68-1.367-6.574-2.798-6.363-1.31c0.21,1.487,2.41,3.392,3.885,4.847C766.182,645.198,769.576,648.932,770.401,648.107z"/>
	</g>
	
		<linearGradient id="path9581_1_" gradientUnits="userSpaceOnUse" x1="-104.2017" y1="3288.9753" x2="-91.5877" y2="3277.072" gradientTransform="matrix(2.6966 0 0 -2.6966 818.2333 10397.5742)">
		<stop  offset="0" style="stop-color:#646464;stop-opacity:0"/>
		<stop  offset="0.3063" style="stop-color:#646464;stop-opacity:0.5825"/>
		<stop  offset="0.47" style="stop-color:#646464"/>
		<stop  offset="0.7283" style="stop-color:#646464;stop-opacity:0.2573"/>
		<stop  offset="1" style="stop-color:#646464;stop-opacity:0"/>
	</linearGradient>
	<path id="path9581" fill="url(#path9581_1_)" d="M537.754,1529.124c-1.143,1.437-2.175,2.999-2.994,4.716
		c5.141,1.107,10.058,3.223,14.447,6.138c8.492,5.64,14.94,13.885,19.463,23.057c1.056-1.169,2.016-2.424,2.845-3.818
		c-4.546-9.552-11.124-18.19-19.913-24.028C547.381,1532.383,542.682,1530.266,537.754,1529.124L537.754,1529.124z"/>
	
		<linearGradient id="path9585_1_" gradientUnits="userSpaceOnUse" x1="-140.5054" y1="3288.3826" x2="-128.6021" y2="3276.9233" gradientTransform="matrix(2.6966 0 0 -2.6966 818.2333 10397.5742)">
		<stop  offset="0" style="stop-color:#646464;stop-opacity:0"/>
		<stop  offset="0.3063" style="stop-color:#646464;stop-opacity:0.5825"/>
		<stop  offset="0.47" style="stop-color:#646464"/>
		<stop  offset="0.7283" style="stop-color:#646464;stop-opacity:0.2573"/>
		<stop  offset="1" style="stop-color:#646464;stop-opacity:0"/>
	</linearGradient>
	<path id="path9585" fill="url(#path9585_1_)" d="M438.643,1533.764c-0.579-0.012-1.142,0.04-1.721,0.067
		c-0.373,0.018-0.753,0.033-1.124,0.068c3.386,0.308,6.75,1.218,9.807,2.59c4.165,1.87,7.842,4.535,11.079,7.567
		c5.997,5.617,10.456,12.551,13.474,19.896c-0.745-5.665-2.458-11.027-4.94-15.944c-1.183-1.369-2.409-2.704-3.743-3.954
		c-3.237-3.032-6.914-5.695-11.08-7.566c-3.644-1.637-7.698-2.654-11.752-2.727V1533.764z"/>
	<g transform="matrix(1.6 0 0 1.6 -533.8 525.7)">
		<path id="path9591" fill="#020204" d="M597.334,644.226c-0.557,3.362-0.577,6.889,0.578,10.095
			c0.764,2.117,2.021,4.037,3.551,5.688c1.002,1.08,2.138,2.063,3.467,2.699c1.329,0.637,2.869,0.908,4.297,0.549
			c1.319-0.331,2.473-1.18,3.324-2.241c0.851-1.06,1.418-2.325,1.823-3.623c1.194-3.834,1.002-8.027-0.183-11.863
			c-0.864-2.795-2.294-5.491-4.532-7.376c-1.068-0.9-2.317-1.604-3.675-1.927c-1.358-0.323-2.828-0.247-4.099,0.33
			c-1.411,0.641-2.503,1.861-3.217,3.235c-0.715,1.375-1.082,2.903-1.335,4.432L597.334,644.226z"/>
		
			<linearGradient id="path9593_1_" gradientUnits="userSpaceOnUse" x1="189.6534" y1="1716.1516" x2="194.8938" y2="1706.9142" gradientTransform="matrix(2.6966 0 0 -2.6966 92.3036 5264.4229)">
			<stop  offset="0" style="stop-color:#757574;stop-opacity:0"/>
			<stop  offset="0.2629" style="stop-color:#757574"/>
			<stop  offset="0.5" style="stop-color:#757574"/>
			<stop  offset="1" style="stop-color:#757574;stop-opacity:0"/>
		</linearGradient>
		<path id="path9593" fill="url(#path9593_1_)" d="M604.521,641.83c0.362,0.948,1.578,1.293,2.246,2.058
			c0.648,0.743,1.328,1.514,1.684,2.433c0.681,1.76-0.672,4.37,0.749,5.615c0.446,0.39,1.339,0.398,1.779,0
			c1.714-1.561,1.334-4.708,0.655-6.925c-0.616-2.012-2.136-3.916-4.011-4.873c-0.867-0.442-2.173-0.809-2.914-0.179
			C604.231,640.365,604.298,641.245,604.521,641.83L604.521,641.83z"/>
	</g>
	<g transform="matrix(1.6 0 0 1.6 -353.3 544.2)">
		
			<radialGradient id="path9599_1_" cx="273.7158" cy="1879.1423" r="27.6355" gradientTransform="matrix(2.5246 -1.042 -0.7316 -1.7728 1222.9387 4300.5146)" gradientUnits="userSpaceOnUse">
			<stop  offset="0" style="stop-color:#D2940A"/>
			<stop  offset="0.7514" style="stop-color:#D89C08"/>
			<stop  offset="0.8658" style="stop-color:#B67E07"/>
			<stop  offset="1" style="stop-color:#946106"/>
		</radialGradient>
		<path id="path9599" fill="url(#path9599_1_)" d="M482.52,691.744c0.092,0.443,0.258,0.869,0.49,1.257
			c0.398,0.667,0.979,1.207,1.606,1.663c0.628,0.457,1.307,0.837,1.964,1.251c3.494,2.196,6.34,5.283,8.871,8.544
			c3.394,4.375,6.396,9.23,10.928,12.41c3.201,2.246,7.03,3.526,10.92,3.917c4.568,0.459,9.193-0.278,13.597-1.575
			c4.081-1.202,8.029-2.89,11.65-5.122c6.886-4.246,12.635-10.469,20.226-13.26c1.657-0.61,3.382-1.046,4.98-1.797
			c1.598-0.752,3.101-1.877,3.865-3.47c0.733-1.53,0.705-3.297,0.944-4.978c0.255-1.798,0.829-3.536,1.143-5.323
			c0.314-1.79,0.352-3.701-0.421-5.345c-0.641-1.361-1.805-2.438-3.144-3.122c-1.339-0.684-2.846-0.995-4.348-1.069
			c-3.003-0.147-5.97,0.622-8.965,0.895c-3.968,0.362-7.962-0.147-11.942-0.028c-4.953,0.147-9.834,1.264-14.783,1.504
			c-5.647,0.274-11.281-0.596-16.933-0.825c-2.446-0.099-4.911-0.077-7.324,0.337c-2.414,0.414-4.784,1.234-6.799,2.625
			c-1.963,1.356-3.527,3.204-5.33,4.767c-0.901,0.781-1.87,1.497-2.943,2.017c-1.073,0.521-2.256,0.844-3.449,0.819
			c-0.613-0.013-1.244-0.115-1.828,0.071c-0.365,0.116-0.689,0.34-0.963,0.607c-0.274,0.268-0.501,0.579-0.715,0.898
			c-0.498,0.739-0.933,1.519-1.299,2.332L482.52,691.744z"/>
		<path id="path9601" fill="#D9B30D" d="M504.692,697.883c-0.579,2.39-0.228,4.991,0.964,7.143c1.19,2.151,3.21,3.83,5.542,4.607
			c2.961,0.987,6.299,0.504,9.065-0.94c1.603-0.837,3.071-2.015,3.996-3.569c0.463-0.778,0.785-1.643,0.905-2.54
			c0.121-0.896,0.038-1.823-0.276-2.672c-0.344-0.93-0.959-1.749-1.716-2.39c-0.757-0.64-1.654-1.105-2.594-1.415
			c-1.884-0.623-3.909-0.635-5.89-0.54c-3.002,0.144-5.993,0.521-8.937,1.127"/>
		<path id="path9603" fill="#604405" d="M494.976,679.318c-2.004,1.185-3.936,2.491-5.836,3.837
			c-0.983,0.697-1.997,1.451-2.517,2.539c-0.367,0.771-0.452,1.646-0.464,2.499s0.043,1.713-0.069,2.559
			c-0.077,0.579-0.231,1.147-0.257,1.73c-0.013,0.291,0.007,0.586,0.084,0.867s0.212,0.549,0.413,0.762
			c0.258,0.275,0.611,0.443,0.971,0.553c0.36,0.11,0.735,0.167,1.101,0.253c1.759,0.413,3.289,1.492,4.633,2.701
			c1.343,1.208,2.549,2.568,3.951,3.707c3.799,3.091,8.818,4.371,13.716,4.451c4.897,0.081,9.738-0.944,14.515-2.02
			c3.752-0.845,7.508-1.729,11.116-3.06c5.544-2.043,10.691-5.139,15.151-9.016c2.021-1.758,3.918-3.689,6.188-5.113
			c2.008-1.261,4.256-2.093,6.297-3.298c0.182-0.108,0.364-0.219,0.527-0.354c0.163-0.135,0.308-0.297,0.403-0.486
			c0.163-0.328,0.164-0.721,0.058-1.071c-0.105-0.351-0.309-0.664-0.539-0.95c-0.254-0.315-0.544-0.601-0.852-0.865
			c-2.132-1.825-5.026-2.488-7.824-2.711c-2.798-0.222-5.63-0.065-8.399-0.527c-2.604-0.435-5.08-1.406-7.594-2.211
			c-2.638-0.846-5.334-1.517-8.068-1.962c-6.43-1.049-13.051-0.848-19.433,0.48c-6.075,1.265-11.934,3.55-17.277,6.707
			L494.976,679.318z"/>
		
			<linearGradient id="path9605_1_" gradientUnits="userSpaceOnUse" x1="135.1065" y1="1690.949" x2="185.2074" y2="1691.3043" gradientTransform="matrix(2.6966 0 0 -2.6966 119.9059 5241.168)">
			<stop  offset="0" style="stop-color:#AD780A"/>
			<stop  offset="0.1197" style="stop-color:#D89E08"/>
			<stop  offset="0.2551" style="stop-color:#EDB80B"/>
			<stop  offset="0.3919" style="stop-color:#EBC80D"/>
			<stop  offset="0.5274" style="stop-color:#F5D838"/>
			<stop  offset="0.7691" style="stop-color:#F6D811"/>
			<stop  offset="1" style="stop-color:#F5CD31"/>
		</linearGradient>
		<path id="path9605" fill="url(#path9605_1_)" d="M494.332,672.581c-2.888,1.945-5.489,4.316-7.69,7.014
			c-1.259,1.544-2.401,3.22-3.035,5.109c-0.499,1.484-0.669,3.057-0.983,4.591c-0.117,0.575-0.257,1.152-0.254,1.738
			c0.002,0.294,0.038,0.588,0.13,0.867c0.091,0.279,0.237,0.541,0.44,0.754c0.337,0.35,0.809,0.54,1.285,0.638
			c0.476,0.098,0.964,0.112,1.447,0.168c2.178,0.248,4.183,1.306,5.989,2.548c1.805,1.243,3.469,2.687,5.321,3.859
			c4.093,2.589,8.976,3.74,13.814,3.927c4.838,0.186,9.667-0.548,14.416-1.497c3.774-0.754,7.537-1.649,11.116-3.06
			c5.483-2.162,10.426-5.49,15.151-9.016c2.146-1.602,4.261-3.254,6.188-5.113c0.654-0.632,1.287-1.287,1.988-1.866
			c0.702-0.578,1.479-1.08,2.344-1.359c1.319-0.424,2.749-0.302,4.115-0.073c1.029,0.172,2.06,0.403,3.102,0.361
			c0.522-0.021,1.043-0.111,1.527-0.305c0.484-0.194,0.93-0.495,1.262-0.897c0.437-0.529,0.659-1.219,0.662-1.904
			s-0.208-1.364-0.556-1.954c-0.696-1.181-1.898-1.981-3.151-2.538c-1.716-0.763-3.572-1.14-5.399-1.581
			c-5.607-1.354-11.056-3.355-16.229-5.92c-2.569-1.275-5.066-2.689-7.593-4.042c-2.599-1.393-5.247-2.731-8.068-3.585
			c-6.308-1.912-13.204-1.285-19.434,0.877c-6.917,2.401-13.17,6.682-17.921,12.259l0,0L494.332,672.581z"/>
		<path id="path9607" fill="#F6DA4A" d="M538.648,673.928c-0.339-0.428-0.825-0.73-1.349-0.884s-1.085-0.165-1.623-0.073
			c-1.077,0.184-2.042,0.764-2.943,1.384c-2.559,1.761-4.819,3.934-6.793,6.333c-2.612,3.174-4.768,6.845-5.491,10.892
			c-0.122,0.682-0.202,1.379-0.117,2.066c0.085,0.688,0.349,1.37,0.836,1.861c0.428,0.432,1.011,0.695,1.613,0.781
			c0.602,0.087,1.222,0.003,1.798-0.192c1.152-0.39,2.109-1.198,3.015-2.008c4.995-4.469,9.511-9.833,11.319-16.289
			c0.181-0.648,0.335-1.311,0.331-1.984c-0.004-0.672-0.179-1.361-0.596-1.888L538.648,673.928z"/>
		<g id="path9609" opacity="0.8" filter="url(#filter15177-1-2)" enable-background="new    ">
			
				<radialGradient id="SVGID_3_" cx="20.9409" cy="1878.3159" r="2.87" gradientTransform="matrix(2.6966 0 0 -1.5729 473.8377 3619.6157)" gradientUnits="userSpaceOnUse">
				<stop  offset="0" style="stop-color:#3A2903"/>
				<stop  offset="0.5547" style="stop-color:#735208"/>
				<stop  offset="1" style="stop-color:#AC8C04"/>
			</radialGradient>
			<path fill="url(#SVGID_3_)" d="M526.685,664.646c0.346,1.111,2.138,0.927,3.173,1.461c0.908,0.468,1.638,1.493,2.661,1.523
				c0.974,0.028,2.491-0.338,2.618-1.304c0.167-1.277-1.698-2.089-2.897-2.557c-1.544-0.602-3.523-0.908-4.972-0.102
				C526.935,663.85,526.573,664.283,526.685,664.646L526.685,664.646z"/>
		</g>
		<g id="path9611" opacity="0.8" filter="url(#filter15173-0-7)" enable-background="new    ">
			
				<radialGradient id="SVGID_4_" cx="12.8687" cy="1679.1399" r="1.3642" gradientTransform="matrix(2.6966 0 0 -2.8989 473.8377 5532.9629)" gradientUnits="userSpaceOnUse">
				<stop  offset="0" style="stop-color:#3A2903"/>
				<stop  offset="0.5547" style="stop-color:#735208"/>
				<stop  offset="1" style="stop-color:#AC8C04"/>
			</radialGradient>
			<path fill="url(#SVGID_4_)" d="M509.588,664.047c-1.33-0.432-3.529,1.912-2.812,3.113c0.197,0.33,0.801,0.747,1.207,0.524
				c0.613-0.337,1.114-1.542,1.777-2.014C510.204,665.355,510.105,664.216,509.588,664.047L509.588,664.047z"/>
		</g>
		
			<linearGradient id="path9613_1_" gradientUnits="userSpaceOnUse" x1="118.4262" y1="1604.6581" x2="118.8704" y2="1602.1707" gradientTransform="matrix(2.9555 0 0.459 -4.0935 -517.5558 7247.1958)">
			<stop  offset="0" style="stop-color:#F5CE2D"/>
			<stop  offset="1" style="stop-color:#D79B08"/>
		</linearGradient>
		<path id="path9613" fill="url(#path9613_1_)" d="M573.267,681.533c-0.328,2.922-2.509,5.291-4.873,5.291l0,0
			c-2.363,0-4.014-2.369-3.686-5.291l0,0c0.328-2.922,2.509-5.291,4.873-5.291l0,0C571.945,676.242,573.595,678.611,573.267,681.533
			L573.267,681.533z"/>
	</g>
	
		<radialGradient id="path9625_1_" cx="823.3138" cy="3322.5085" r="24.3308" gradientTransform="matrix(-2.1742 0 0 -2.0579 2164.4314 8616.4668)" gradientUnits="userSpaceOnUse">
		<stop  offset="0" style="stop-color:#000000"/>
		<stop  offset="1" style="stop-color:#000000;stop-opacity:0.2489"/>
	</radialGradient>
	<path id="path9625" opacity="0.25" fill="url(#path9625_1_)" enable-background="new    " d="M395.225,1762.529
		c2.433,3.65-1.514,16.244,55.2,8.181c0,0-9.959,1.095-19.777,3.364c-15.271,5.109-28.565,10.819-38.821,18.385
		c-10.163,7.479-17.607,17.232-26.934,25.616c0,0,15.106-27.593,18.864-35.901c3.765-8.31-0.63-7.93,2.347-20.151
		c2.978-12.227,10.268-23.97,10.268-23.97s-5.951,17.276-1.152,24.478L395.225,1762.529z"/>
	
		<radialGradient id="path9629_1_" cx="-88.0924" cy="3308.3835" r="24.3307" gradientTransform="matrix(2.6966 0 0 -2.0579 791.2686 8616.4668)" gradientUnits="userSpaceOnUse">
		<stop  offset="0" style="stop-color:#000000"/>
		<stop  offset="1" style="stop-color:#000000;stop-opacity:0.2489"/>
	</radialGradient>
	<path id="path9629" opacity="0.42" fill="url(#path9629_1_)" enable-background="new    " d="M577.579,1759.236
		c-11.558,8.051-18.326,7.098-32.354,8.673c-14.023,1.574-51.98,1.005-51.98,1.005s5.495-0.103,17.667,2.166
		c12.178,2.268,37.009,4.438,51.007,9.76c13.986,5.324,19.089,6.842,27.593,12.219c12.1,7.65,20.975,19.627,32.547,28.011
		c0,0,0.56-11.124-4.109-19.433c-4.67-8.31-17.217-21.409-20.916-33.626c-3.693-12.226-5.448-36.246-5.448-36.246
		s-2.446,19.418-14.004,27.473L577.579,1759.236z"/>
	
		<radialGradient id="path9633_1_" cx="-120.5163" cy="3163.3083" r="9.6383" gradientTransform="matrix(2.6966 0 0 -2.8837 791.2686 10918.79)" gradientUnits="userSpaceOnUse">
		<stop  offset="0" style="stop-color:#000000"/>
		<stop  offset="1" style="stop-color:#000000;stop-opacity:0.2489"/>
	</radialGradient>
	<path id="path9633" opacity="0.2" fill="url(#path9633_1_)" enable-background="new    " d="M468.885,1742.168
		c-0.429,3.487-0.986,6.959-1.669,10.406c-0.336,1.699-0.706,3.402-1.339,5.015c-0.632,1.612-1.543,3.143-2.829,4.303
		c-1.127,1.017-2.502,1.715-3.882,2.348c-5.385,2.466-11.15,4.102-17.023,4.836c2.348,0.172,4.692,0.386,7.03,0.643
		c1.474,0.161,2.951,0.34,4.389,0.709c1.437,0.367,2.838,0.933,4.035,1.808c1.313,0.961,2.343,2.271,3.112,3.704
		c1.533,2.854,2.047,6.139,2.33,9.366c0.362,4.128,0.389,8.285,0.08,12.419c0.278-2.766,0.856-5.499,1.725-8.141
		c1.564-4.757,4.083-9.216,7.472-12.902c1.346-1.462,2.829-2.804,4.453-3.947c4.978-3.505,11.301-5.044,17.336-4.219
		c-6.129,0.271-12.333-1.654-17.232-5.35c-2.496-1.882-4.668-4.224-6.181-6.958c-2.337-4.229-2.994-9.358-1.799-14.04l0,0
		L468.885,1742.168z"/>
	<path id="path9637" opacity="0.11" enable-background="new    " d="M454.064,1823.613c-2.995,11.229-4.941,22.757-6.139,34.285
		c-1.497,16.318-1.049,32.637-1.946,49.106c-0.3,4.491-0.599,9.132-0.898,13.624h6.288c-0.299-17.367,1.946-34.734,2.994-51.951
		C455.261,1853.705,455.112,1838.585,454.064,1823.613L454.064,1823.613z"/>
	<path id="path9639" fill="#232323" d="M588.658,1655.483c-5.179,4.717,2.428,11.803,6.035,20.137
		c2.243,5.177,8.449,12.468,14.451,11.3c4.516-0.879,7.316-7.376,6.888-11.955c-0.824-8.836-8.28-10.906-13.694-13.941
		c-4.291-2.403-10.043-8.848-13.679-5.536V1655.483z"/>
	<g transform="translate(617.3 -146.7)">
		<path id="path9667" fill="#020204" d="M84.243,1787.661c8.691-16.215,18.475-32.085,31.455-45.109
			c8.231-8.266,17.876-15.57,23.281-25.9c4.995-9.531,5.845-20.735,4.939-31.455c-0.527-6.243-1.615-12.499-1.042-18.745
			c0.293-3.194,1.046-6.406,2.704-9.153s4.304-4.996,7.438-5.689c1.927-0.426,3.964-0.251,5.841,0.364
			c1.875,0.617,3.593,1.664,5.096,2.944c3.006,2.559,5.127,5.982,7.136,9.382c6.269,10.618,11.933,21.635,16.094,33.237
			c7.907,22.023,10.212,46.322,4.669,69.049c-5.732,23.521-19.447,44.33-34.958,62.91c-17.322,20.751-37.189,39.36-58.898,55.47
			c-10.342,7.67-21.11,14.773-32.279,21.185c-4.053,2.326-8.177,4.569-12.558,6.198s-9.046,2.636-13.714,2.411
			c-4.521-0.218-8.956-1.595-12.922-3.778c-3.965-2.183-7.469-5.159-10.442-8.569c-5.949-6.824-9.731-15.271-12.659-23.835
			c-1.538-4.497-2.873-9.123-3.053-13.872s0.889-9.677,3.763-13.461c2.589-3.409,6.447-5.661,10.465-7.139
			c4.017-1.478,8.249-2.262,12.405-3.283c11.631-2.859,22.967-7.752,31.934-15.69c11.359-10.041,18.146-24.118,25.302-37.474
			L84.243,1787.661z"/>
		<path id="path9671" fill="#FFFFFF" stroke="#020204" d="M82.746,1789.007c9.218-17.037,19.014-34.09,32.757-47.729
			c7.933-7.881,17.292-14.803,22.353-24.778c4.422-8.73,5.027-18.864,4.938-28.655c-0.063-7.122-0.448-14.256,0.082-21.364
			c0.236-3.168,0.675-6.393,2.104-9.229c0.714-1.419,1.675-2.724,2.891-3.748c1.214-1.023,2.688-1.756,4.258-2.005
			c2.046-0.323,4.218,0.213,5.876,1.454c-1.65,1.429-2.925,3.287-3.666,5.341c-0.925,2.566-1.006,5.354-0.929,8.08
			c0.368,12.863,4.049,25.451,4.537,38.313c0.305,8.015-0.7,16.259-4.362,23.386c-2.927,5.707-7.398,10.438-11.384,15.465
			c-11.685,14.732-19.328,32.219-26.2,49.721c-4.126,10.511-8.026,21.125-12.869,31.335c-5.442,11.463-12.402,22.727-22.967,29.764
			c-9.519,6.341-21.124,8.682-32.488,9.919c-5.74,0.625-11.535,1.002-17.292,0.478c-5.749-0.525-11.478-1.984-16.499-4.842
			c-3.8-2.167-7.147-5.119-9.771-8.619c7.77-4.055,15.645-7.905,23.625-11.545c11.594-5.294,23.625-10.296,33.058-18.864
			c9.592-8.717,15.765-20.466,21.933-31.859L82.746,1789.007z"/>
		<g>
			<defs>
				<path id="SVGID_5_" d="M82.746,1789.007c7.461-17.95,18.699-34.314,32.757-47.729c8.097-7.723,17.353-14.771,22.353-24.778
					c4.376-8.752,5.015-18.864,4.938-28.655c-0.056-7.122-0.446-14.256,0.082-21.364c0.235-3.168,0.674-6.393,2.103-9.229
					c0.715-1.419,1.678-2.724,2.891-3.748c1.215-1.023,2.689-1.756,4.259-2.005c2.046-0.323,4.217,0.214,5.875,1.454
					c-1.649,1.429-2.925,3.287-3.665,5.341c-0.924,2.566-1.006,5.354-0.929,8.08c0.367,12.863,4.049,25.451,4.537,38.313
					c0.304,8.015-0.7,16.259-4.36,23.386c-2.927,5.707-7.399,10.438-11.384,15.465c-11.686,14.732-19.328,32.219-26.201,49.721
					c-4.125,10.511-8.026,21.125-12.869,31.335c-5.442,11.463-12.402,22.727-22.967,29.764c-9.518,6.341-21.125,8.682-32.488,9.919
					c-5.74,0.625-11.536,1.003-17.292,0.478c-5.749-0.525-11.477-1.984-16.498-4.844c-3.801-2.166-7.148-5.119-9.771-8.619
					c7.822-3.95,15.689-7.8,23.624-11.545c11.505-5.437,23.266-10.748,33.058-18.863c10.058-8.33,17.741-19.493,21.934-31.859l0,0
					L82.746,1789.007z"/>
			</defs>
			<clipPath id="SVGID_6_">
				<use xlink:href="#SVGID_5_"  overflow="visible"/>
			</clipPath>
			<path id="path9675" opacity="0.25" clip-path="url(#SVGID_6_)" fill="#848484" enable-background="new    " d="M164.491,1654.414
				c0.015,6.716-12.354,7.293-14.972,13.475c-3.16,7.463-3.482,20.076-1.463,28.491c2.209,9.215,6.805,14.245,3.335,22.412
				c-2.466,5.806-15.211,7.089-20.212,11.032c-9.069,7.158-12.064,15.795-19.463,24.524c-5.26,6.202-9.666,13.213-13.1,20.585
				c-10.257,22.009-26.484,55.125-56.892,68.494c-16.903,7.434-49.72,16.829-55.395-0.748
				c-16.049-49.735,128.321-127.033,150.464-212.896c3.087-11.979,27.667,12.332,27.697,24.704V1654.414z"/>
		</g>
	</g>
	<g transform="translate(617.3 -146.7)">
		<path id="path9681" fill="#020204" d="M-382.12,2026.905c8.741,3.826,18.146,6.706,27.667,6.254
			c9.315-0.441,18.146-4.016,27.099-6.634c10.435-3.054,21.409-4.848,32.204-3.512c8.219,1.017,16.154,3.831,23.535,7.589
			c6.141,3.126,11.937,6.907,17.427,11.078c1.591,1.211,3.175,2.467,4.981,3.325c1.806,0.86,3.89,1.3,5.824,0.788
			c1.496-0.396,2.81-1.34,3.831-2.503c1.021-1.164,1.767-2.544,2.388-3.962c2.101-4.787,2.848-10.127,2.406-15.33
			c-0.441-5.21-2.048-10.292-4.446-14.939c-5.556-10.765-15.106-18.924-25.197-25.631c-14.717-9.78-31.74-17.202-49.406-16.813
			c-6.975,0.15-13.87,1.507-20.825,1.977c-6.962,0.47-14.233-0.021-20.391-3.3c-6.842-3.643-11.495-10.24-16.439-16.214
			c-2.47-2.987-5.087-5.887-8.165-8.244c-3.078-2.355-6.653-4.158-10.489-4.722c-3.337-0.489-6.779-0.021-9.959,1.104
			c-3.18,1.126-6.108,2.894-8.754,4.984c-5.294,4.184-9.442,9.601-13.874,14.687c-3.68,4.225-7.608,8.279-10.633,12.994
			c-3.024,4.716-5.125,10.252-4.659,15.84c0.291,3.485,1.577,6.85,3.469,9.79c1.894,2.94,4.382,5.468,7.137,7.621
			c5.509,4.31,12.008,7.115,18.28,10.201c9.044,4.445,17.771,9.551,26.994,13.593L-382.12,2026.905z"/>
	</g>
</g>
</svg>
