<svg xmlns="http://www.w3.org/2000/svg" xmlns:xlink="http://www.w3.org/1999/xlink" width="702" height="704" preserveAspectRatio="xMidYMid meet" viewBox="0 0 702 704" style="-ms-transform: rotate(360deg); -webkit-transform: rotate(360deg); transform: rotate(360deg);"><path d="M527 135c-34-19-45-62-26-96 13-23 37-35 61-35 12 0 24 3 35 9 34 20 45 63 26 96-13 23-37 35-61 35-12 0-24-3-35-9zm175 199H586c-4-54-31-102-72-133-7-5-14-10-22-15-26-14-56-22-88-22-33 0-63 8-90 23l-64-97c45-27 97-42 154-42 22 0 44 2 66 7-8 39 9 80 45 101 14 8 30 12 47 12 23 0 45-8 62-23 46 50 75 116 78 189zM228 105l64 97c-40 31-67 78-70 132-1 4-1 8-1 13 0 4 0 9 1 13 4 57 34 106 78 137l-61 99c-58-38-102-96-122-164 28-16 48-47 48-82s-20-67-50-83c19-66 59-123 113-162zM70 280c39 0 71 31 71 70s-32 71-71 71-70-32-70-71 31-70 70-70zm192 330l61-100c24 12 52 19 81 19 32 0 62-8 89-23 8-4 15-9 22-15 40-30 67-77 71-131h116c-3 76-35 145-85 196-15-11-34-17-53-17-17 0-33 4-47 12-32 19-49 53-47 87-22 5-44 8-66 8-52 0-100-13-142-36zm302-47c24 0 48 12 61 35 19 34 7 78-26 97-11 6-23 9-35 9-25 0-48-12-61-35-20-34-8-77 26-97 11-6 23-9 35-9z" fill="#626262"/><rect x="0" y="0" width="702" height="704" fill="rgba(0, 0, 0, 0)" /></svg>