<svg xmlns="http://www.w3.org/2000/svg" xmlns:xlink="http://www.w3.org/1999/xlink" width="24" height="24" preserveAspectRatio="xMidYMid meet" viewBox="0 0 24 24" style="-ms-transform: rotate(360deg); -webkit-transform: rotate(360deg); transform: rotate(360deg);"><path d="M7.75 13a1.18 1.18 0 01.42-.92 5.72 5.72 0 012.08.91 1.25 1.25 0 01-2.5.01zm6 0a5.72 5.72 0 012.08-.91c.271.228.425.566.42.92a1.25 1.25 0 11-2.5 0V13zM12 9a15.76 15.76 0 00-7.93 2L4 12a8 8 0 00.84 3.54A46.7 46.7 0 0112 15a46.7 46.7 0 017.16.54A8 8 0 0020 12l-.07-1A15.76 15.76 0 0012 9zm0-7c5.523 0 10 4.477 10 10s-4.477 10-10 10S2 17.523 2 12 6.477 2 12 2z" fill="#626262"/><rect x="0" y="0" width="24" height="24" fill="rgba(0, 0, 0, 0)" /></svg>