<svg xmlns="http://www.w3.org/2000/svg" xmlns:xlink="http://www.w3.org/1999/xlink" width="24" height="24" preserveAspectRatio="xMidYMid meet" viewBox="0 0 24 24" style="-ms-transform: rotate(360deg); -webkit-transform: rotate(360deg); transform: rotate(360deg);"><path d="M17 20h2a1 1 0 001-1v-2h-3v3zm-2-8a3 3 0 00-3 3h3v-3zm2 0v3h5v4a3 3 0 01-3 3h-4v-5h-3v5c-.447-.011-.78-.028-1-.05-5.053-.5-9-4.764-9-9.95C2 6.477 6.477 2 12 2c5.178 0 9.437 3.936 9.949 8.98.022.223.04.563.051 1.02h-5zm-7 3a5 5 0 015-5h4.749A8.006 8.006 0 0012 4a8 8 0 00-8 8 8.006 8.006 0 006 7.749V15zm-2-3a2 2 0 110-4 2 2 0 010 4z" fill="#626262"/><rect x="0" y="0" width="24" height="24" fill="rgba(0, 0, 0, 0)" /></svg>